<svg xmlns="http://www.w3.org/2000/svg" width="242" height="63" viewBox="0 0 242 63">
  <g fill="none" fill-rule="evenodd" transform="translate(0 -1)">
    <path fill="#FFF" fill-rule="nonzero" d="M216.97 51.118C216.97 49.75 214.9 49.804 214.9 51.118 214.9 52.486 216.97 52.396 216.97 51.118zM222.46 52.18C225.25 52.18 226.402 51.028 226.402 48.166L226.402 45.16C226.402 42.37 224.89 41.344 222.46 41.344 220.03 41.344 218.518 42.37 218.518 45.16L218.518 48.166C218.518 51.028 219.616 52.18 222.46 52.18zM222.46 50.686C220.93 50.686 220.228 50.074 220.228 48.166L220.228 45.16C220.228 43.252 221.038 42.874 222.46 42.874 223.882 42.874 224.692 43.252 224.692 45.16L224.692 48.166C224.692 50.074 224.044 50.686 222.46 50.686zM230.092 52.018L230.092 45.25C230.092 43.63 231.388 42.946 233.044 43.216L233.044 41.47C231.748 41.2 230.542 41.65 230.02 42.442L229.948 41.47 228.382 41.47 228.382 52.018 230.092 52.018zM238.102 56.374C240.442 56.374 241.99 55.222 241.99 52.36L241.99 41.56 240.568 41.56 240.352 42.892C240.028 41.974 239.002 41.452 237.778 41.452 235.672 41.452 234.214 42.406 234.214 45.25L234.214 48.436C234.214 50.812 235.438 52.054 237.868 52.054 239.236 52.054 240.136 51.334 240.388 50.632L240.388 52.36C240.388 54.268 239.488 54.808 238.12 54.808 236.986 54.808 236.176 54.502 236.086 53.242L234.448 53.242C234.538 55.546 235.87 56.374 238.102 56.374zM237.868 50.452C236.644 50.452 235.924 49.894 235.924 48.238L235.924 45.232C235.924 43.504 236.626 43.054 238.03 43.054 239.452 43.108 240.244 43.702 240.28 45.664L240.28 47.698C240.28 49.876 239.344 50.452 237.868 50.452zM81.9174 29.023L81.9174 26.125 74.5804 26.125 74.5804 21.456 80.5604 21.456 80.5604 18.604 74.5804 18.604 74.5804 14.05 81.5954 14.05 81.5954 11.29 71.4064 11.29 71.4064 29.023 81.9174 29.023zM87.5064 29L87.5064 24.492 87.2304 17.776 92.4284 29 95.5104 29 95.5104 11.313 92.3594 11.313 92.3594 15.499 92.7044 22.974 87.5064 11.313 84.3554 11.313 84.3554 29 87.5064 29zM104.5494 29C108.7584 29 110.5984 27.459 110.5984 23.802L110.5984 16.58C110.5984 12.831 108.8274 11.29 104.5494 11.29L98.7304 11.29 98.7304 29 104.5494 29zM104.5494 26.125L101.8814 26.125 101.8814 14.188 104.5954 14.188C107.0564 14.188 107.4244 15.062 107.4244 16.741L107.4244 23.641C107.4244 25.32 106.8494 26.125 104.5494 26.125zM77.0644 52.046C81.2734 52.046 83.1134 50.413 83.1134 46.526L79.9394 46.526C79.9394 48.274 79.3644 49.24 77.0644 49.24 74.7644 49.24 74.3274 48.274 74.3274 46.595L74.3274 39.718C74.3274 38.039 74.7644 37.073 77.0644 37.073 79.5254 37.073 79.9394 38.039 79.9394 39.764L83.1134 39.764C83.1134 35.831 81.3424 34.267 77.0644 34.267 72.7864 34.267 71.1534 35.808 71.1534 39.557L71.1534 46.756C71.1534 50.413 72.8554 52.046 77.0644 52.046zM90.6114 52.161C94.8204 52.161 96.6604 50.528 96.6604 46.871L96.6604 39.373C96.6604 35.624 94.8894 34.083 90.6114 34.083 86.3334 34.083 84.7004 35.624 84.7004 39.373L84.7004 46.871C84.7004 50.528 86.4024 52.161 90.6114 52.161zM90.6114 49.355C88.3114 49.355 87.8744 48.389 87.8744 46.71L87.8744 39.534C87.8744 37.924 88.3114 36.889 90.6114 36.889 93.0724 36.889 93.4864 37.924 93.4864 39.534L93.4864 46.71C93.4864 48.389 92.9114 49.355 90.6114 49.355zM102.8704 52L102.8704 45.767 104.0434 45.767 107.5624 52 111.2654 52 107.3784 45.261C109.5174 44.571 110.4374 43.145 110.4374 40.523L110.4374 39.603C110.4374 35.854 108.4364 34.29 104.1584 34.29L99.6964 34.29 99.6964 52 102.8704 52zM104.1584 42.846L102.8474 42.846 102.8474 37.211 104.2044 37.211C106.6654 37.211 107.1024 38.085 107.1024 39.764L107.1024 40.362C107.1024 42.041 106.4584 42.846 104.1584 42.846zM119.0164 52.161C123.2254 52.161 125.0654 50.528 125.0654 46.871L125.0654 39.373C125.0654 35.624 123.2944 34.083 119.0164 34.083 114.7384 34.083 113.1054 35.624 113.1054 39.373L113.1054 46.871C113.1054 50.528 114.8074 52.161 119.0164 52.161zM119.0164 49.355C116.7164 49.355 116.2794 48.389 116.2794 46.71L116.2794 39.534C116.2794 37.924 116.7164 36.889 119.0164 36.889 121.4774 36.889 121.8914 37.924 121.8914 39.534L121.8914 46.71C121.8914 48.389 121.3164 49.355 119.0164 49.355zM131.2294 52L131.2294 47.492 130.9534 40.776 136.1514 52 139.2334 52 139.2334 34.313 136.0824 34.313 136.0824 38.499 136.4274 45.974 131.2294 34.313 128.0784 34.313 128.0784 52 131.2294 52zM144.2934 52L145.2134 48.872 149.7444 48.872 150.6414 52 153.9074 52 149.0774 34.313 145.9264 34.313 141.0274 52 144.2934 52zM148.9394 45.767L145.9954 45.767 147.4674 39.212 148.9394 45.767zM160.7407 52.023L165.5017 34.313 162.2587 34.313 160.7177 39.672 159.0847 47.998 157.4287 39.718 155.8877 34.313 152.6447 34.313 157.4287 52.023 160.7407 52.023zM170.5157 52.023L170.5157 34.313 167.3187 34.313 167.3187 52.023 170.5157 52.023zM176.9097 52L176.9097 45.767 178.0827 45.767 181.6017 52 185.3047 52 181.4177 45.261C183.5567 44.571 184.4767 43.145 184.4767 40.523L184.4767 39.603C184.4767 35.854 182.4757 34.29 178.1977 34.29L173.7357 34.29 173.7357 52 176.9097 52zM178.1977 42.846L176.8867 42.846 176.8867 37.211 178.2437 37.211C180.7047 37.211 181.1417 38.085 181.1417 39.764L181.1417 40.362C181.1417 42.041 180.4977 42.846 178.1977 42.846zM192.9637 52.161C196.6897 52.161 198.9207 50.413 198.9207 46.756L198.9207 34.313 195.7467 34.313 195.7467 46.595C195.7467 48.274 194.8497 49.355 192.9637 49.355 191.0777 49.355 190.3417 48.274 190.3417 46.595L190.3417 34.313 187.1677 34.313 187.1677 46.756C187.1677 50.413 189.2377 52.161 192.9637 52.161zM207.2697 52.184C211.5247 52.184 213.2957 50.459 213.2957 46.365 213.2957 42.823 211.3407 41.995 209.2937 41.673 206.6027 41.259 204.8317 41.443 204.8317 39.212 204.8317 37.533 205.5447 36.981 207.2927 36.981 208.8337 36.981 209.6157 37.418 209.7077 38.913L212.9047 38.913C212.6057 35.371 210.4897 34.198 207.2927 34.198 203.6587 34.198 201.6347 35.923 201.6347 39.235 201.6347 42.892 203.7507 43.881 205.7517 44.134 207.6377 44.387 210.1217 44.387 210.1217 46.48 210.1217 48.481 209.2477 49.286 207.3387 49.286 205.3147 49.286 204.7167 48.55 204.6477 47.193L201.4507 47.193C201.4507 50.045 202.8537 52.184 207.2697 52.184z"/>
    <g transform="translate(0 .853)">
      <path fill="#FEFEFE" d="M0,31.5917 C0.077,49.0057 13.861,62.9747 31.378,63.0007335 C48.965,63.0257 62.795,49.0387 62.8461337,31.6367 C62.896,14.1597 48.911,0.1887 31.503,0.147606307 C13.976,0.1057 0.01,14.1897 0,31.5917"/>
      <path fill="#A30F44" d="M3.6098,31.5062 C3.4328,46.8432 16.0688,59.2372 31.0778,59.3602 C46.5598,59.4852 59.2038,47.1572 59.1998009,31.5732 C59.1968,16.1112 46.8728,3.8042 31.4218,3.7631006 C15.8568,3.7222 3.5238,16.3702 3.6098,31.5062 M-0.0002,31.5912 C0.0098,14.1902 13.9758,0.1052 31.5028,0.147106314 C48.9108,0.1892 62.8968,14.1602 62.845939,31.6362 C62.7958,49.0382 48.9648,63.0262 31.3778,63.0002362 C13.8608,62.9752 0.0768,49.0052 -0.0002,31.5912"/>
      <path fill="#FFF" d="M7.1196,31.56 C7.0236,44.683 17.6856,55.791 31.3046,55.802007 C44.7486,55.812 55.5806,45.06 55.5866017,31.574 C55.5916,17.967 44.5876,7.366 31.3756,7.33593906 C17.8946,7.306 7.0116,18.357 7.1196,31.56 M3.6096,31.506 C3.5236,16.37 15.8566,3.722 31.4216,3.7629006 C46.8726,3.804 59.1966,16.111 59.2006005,31.573 C59.2036,47.158 46.5596,59.486 31.0776,59.36 C16.0686,59.238 3.4326,46.843 3.6096,31.506"/>
      <path fill="#A30F44" d="M39.4648,20.7084 C41.1698,19.4704 42.7338,18.3314 44.3038,17.1994 C44.4968,17.0604 44.5418,16.9704 44.3328,16.7964 C43.5018,16.1054 42.6368,15.4634 41.7158,14.8974 C41.4988,14.7644 41.4128,14.7964 41.3338,15.0424 C40.7358,16.8794 40.1248,18.7124 39.4648,20.7084 M18.5298,35.8504 C16.5428,35.8504 14.6098,35.8584 12.6758,35.8414 C12.2958,35.8384 12.3218,35.9924 12.3878,36.2634 C12.6308,37.2574 12.9598,38.2214 13.3218,39.1764 C13.4738,39.5754 13.6188,39.5084 13.8948,39.3074 C15.3088,38.2744 16.7348,37.2594 18.1548,36.2334 C18.2798,36.1434 18.4438,36.0874 18.5298,35.8504 M31.5458,45.1654 C30.8918,47.1834 30.2768,49.0864 29.6568,50.9874 C29.5578,51.2914 29.7788,51.2864 29.9508,51.2904 C30.8078,51.3104 31.6658,51.3334 32.5218,51.3214 C33.5278,51.3074 33.5288,51.2904 33.2308,50.3674 C32.6818,48.6714 32.1318,46.9754 31.5458,45.1654 M44.5228,35.8984 C46.1538,37.0734 47.7628,38.2324 49.3718,39.3904 C49.6258,39.5724 49.6368,39.3184 49.6888,39.1944 C50.0848,38.2514 50.3808,37.2754 50.6448,36.2874 C50.7538,35.8834 50.6368,35.7874 50.2408,35.7914 C48.5438,35.8094 46.8458,35.7964 45.1478,35.8034 C44.9588,35.8044 44.7528,35.7334 44.5228,35.8984 M42.3408,30.8314 L42.3408,32.3664 C42.3408,33.7634 42.4478,33.8684 43.8788,33.8724 C43.9518,33.8724 44.0248,33.8714 44.0978,33.8674 C45.3648,33.7854 46.6128,33.9304 47.8518,34.1844 C48.4488,34.3064 49.0448,34.3474 49.6458,34.2084 C50.3388,34.0484 51.1218,33.1764 51.1458,32.5244 C51.3198,27.7384 49.9488,23.4434 47.0328,19.6454 C46.3188,18.7144 45.2958,18.5224 44.2828,19.1064 C43.8828,19.3364 43.5458,19.6424 43.2348,19.9804 C42.3658,20.9264 41.4228,21.7844 40.3408,22.4854 C39.9718,22.7244 39.6438,23.0144 39.3598,23.3544 C39.1588,23.5964 39.1198,23.7934 39.3398,24.0714 C39.8368,24.7024 40.2468,25.4064 40.7738,26.0084 C41.9948,27.4014 42.7938,28.9064 42.3408,30.8314 M31.5338,12.0523311 C29.2648,12.0464 27.0638,12.4324 24.9238,13.1814 C23.8198,13.5684 23.3038,14.5244 23.5658,15.6774 C23.6678,16.1274 23.8568,16.5394 24.0828,16.9384 C24.6968,18.0224 25.2098,19.1504 25.5398,20.3554 C25.6608,20.7984 25.8338,21.2164 26.0738,21.6094 C26.2628,21.9184 26.4708,22.0074 26.8438,21.8794 C28.2418,21.3994 29.6558,20.9664 31.0578,20.4984 C31.3868,20.3884 31.6798,20.3774 32.0118,20.4914 C33.1158,20.8714 34.2308,21.2224 35.3418,21.5834 C36.8818,22.0844 37.0518,22.0044 37.5138,20.3994 C37.8638,19.1804 38.3718,18.0334 38.9958,16.9344 C39.2598,16.4694 39.4638,15.9864 39.5598,15.4584 C39.7318,14.5104 39.1998,13.5874 38.2928,13.2544 C36.1108,12.4514 33.8568,12.0584 31.5338,12.0523311 M48.1278,41.5404 C48.2548,40.6504 47.7518,40.0724 47.0698,39.6054 C46.8008,39.4214 46.5048,39.2704 46.2078,39.1324 C45.0758,38.6084 43.9968,38.0024 43.0208,37.2204 C42.6918,36.9564 42.3298,36.7454 41.9478,36.5634 C41.6198,36.4084 41.4048,36.4454 41.1748,36.7734 C40.3058,38.0164 39.3938,39.2294 38.5138,40.4644 C38.3128,40.7484 38.0748,40.9204 37.7438,41.0234 C36.6108,41.3754 35.4848,41.7524 34.3558,42.1174 C32.7978,42.6224 32.7498,42.7144 33.3188,44.2824 C33.7378,45.4384 34.0108,46.6274 34.1398,47.8504 C34.2138,48.5474 34.3718,49.2194 34.7828,49.8064 C35.1728,50.3644 36.3148,50.7704 36.9688,50.5764 C41.5418,49.2184 45.1588,46.5564 47.8558,42.6264 C48.0838,42.2934 48.2388,41.9664 48.1278,41.5404 M14.9528,41.5694 C14.9158,42.2364 14.9118,42.2394 15.2188,42.6854 C17.8518,46.5064 21.3758,49.1224 25.8088,50.5034 C27.0968,50.9044 28.2098,50.3464 28.6858,49.0764 C28.8208,48.7154 28.9008,48.3394 28.9408,47.9584 C29.0758,46.6824 29.3398,45.4374 29.7968,44.2344 C29.9388,43.8604 30.0268,43.4684 30.0698,43.0654 C30.1088,42.7054 30.0098,42.5134 29.6278,42.3964 C28.1788,41.9554 26.7438,41.4674 25.3008,41.0084 C25.0098,40.9154 24.7948,40.7684 24.6138,40.5144 C23.8098,39.3824 22.9858,38.2654 22.1708,37.1424 C21.5998,36.3574 21.5298,36.3424 20.6888,36.8384 C20.6268,36.8754 20.5608,36.9094 20.5038,36.9554 C19.2528,37.9494 17.8648,38.7074 16.4288,39.4004 C15.4928,39.8524 14.8118,40.5514 14.9528,41.5694 M18.4428,33.8764 C19.0068,33.8784 19.5698,33.9234 20.1368,33.8144 C20.5798,33.7294 20.7768,33.5684 20.7628,33.0634 C20.7228,31.6024 20.7578,30.1394 20.7418,28.6764 C20.7378,28.3264 20.8338,28.0524 21.0418,27.7744 C21.7648,26.8094 22.4648,25.8264 23.1728,24.8504 C24.0988,23.5734 24.0828,23.4074 22.7498,22.5094 C21.6498,21.7684 20.6728,20.8974 19.7818,19.9204 C19.4218,19.5254 19.0128,19.1924 18.5238,18.9664 C17.6928,18.5814 16.6308,18.8284 16.0718,19.5464 C13.2048,23.2294 11.8108,27.4094 11.8578,32.0734 C11.8698,33.3354 12.7658,34.2644 14.0348,34.3234 C14.3638,34.3384 14.6898,34.3214 15.0168,34.2554 C16.1468,34.0244 17.2838,33.8574 18.4428,33.8764 M35.0698,39.9594 C35.7468,39.9594 36.4238,39.9404 37.0998,39.9674 C37.4438,39.9804 37.6188,39.8854 37.7258,39.5384 C38.1268,38.2294 38.5568,36.9294 38.9838,35.6284 C39.0718,35.3584 39.1628,35.0784 38.9528,34.8514 C38.7308,34.6114 38.4338,34.6514 38.1348,34.7334 C37.5648,34.8904 37.0108,34.8134 36.4868,34.5434 C35.8288,34.2034 35.6168,33.6734 35.8558,32.9924 C36.0868,32.3334 36.6148,32.0304 37.3248,32.1804 C37.8728,32.2954 38.3668,32.5204 38.7128,32.9904 C38.8828,33.2214 39.1008,33.4074 39.3978,33.3684 C39.7398,33.3224 39.8348,33.0224 39.9268,32.7384 C40.3308,31.4874 40.7208,30.2314 41.1538,28.9904 C41.2828,28.6214 41.1928,28.4414 40.8928,28.2304 C39.7858,27.4544 38.6998,26.6484 37.6028,25.8574 C37.3878,25.7034 37.1848,25.4354 36.8798,25.5994 C36.5958,25.7514 36.5348,26.0454 36.5278,26.3544 C36.5138,26.9554 36.2358,27.4414 35.8208,27.8514 C35.3118,28.3544 34.7488,28.3934 34.1908,27.9904 C33.6328,27.5874 33.4868,27.0324 33.8048,26.3984 C34.0848,25.8414 34.5058,25.4434 35.1098,25.2164 C35.7748,24.9664 35.8198,24.5604 35.2608,24.1524 C34.1388,23.3334 33.0028,22.5344 31.8948,21.6974 C31.6098,21.4824 31.4388,21.5374 31.1908,21.7214 C30.1038,22.5264 29.0038,23.3124 27.9128,24.1124 C27.7018,24.2674 27.3718,24.3714 27.4328,24.7124 C27.4888,25.0284 27.7628,25.1664 28.0488,25.2724 C28.6508,25.4944 29.0498,25.9334 29.2978,26.5094 C29.5568,27.1144 29.4038,27.6164 28.8728,28.0004 C28.3368,28.3874 27.8158,28.3794 27.3248,27.9384 C26.8618,27.5234 26.5508,27.0164 26.5398,26.3684 C26.5348,26.0624 26.4698,25.7684 26.1908,25.6114 C25.9048,25.4494 25.7158,25.7094 25.5178,25.8524 C24.3908,26.6634 23.2748,27.4904 22.1398,28.2904 C21.8818,28.4724 21.8408,28.6304 21.9398,28.9214 C22.3738,30.2004 22.7838,31.4874 23.1978,32.7734 C23.2898,33.0574 23.3718,33.3744 23.7128,33.4154 C24.0008,33.4494 24.2188,33.2464 24.3918,33.0214 C24.7698,32.5264 25.2908,32.2874 25.8888,32.2004 C26.5578,32.1024 27.0328,32.3944 27.2528,33.0264 C27.4708,33.6544 27.2868,34.1984 26.7038,34.5244 C26.1628,34.8284 25.5848,34.9694 24.9658,34.7684 C24.6748,34.6744 24.3758,34.6494 24.1478,34.8844 C23.9178,35.1224 24.0538,35.3984 24.1378,35.6584 C24.5558,36.9434 24.9848,38.2254 25.3838,39.5164 C25.4868,39.8494 25.6368,39.9744 25.9958,39.9684 C27.3488,39.9464 28.7008,39.9574 30.0538,39.9614 C30.3378,39.9624 30.6358,39.9574 30.7828,39.6874 C30.9368,39.4044 30.8128,39.1264 30.6408,38.8694 C30.2738,38.3214 30.1928,37.7184 30.3598,37.0874 C30.5348,36.4244 30.9448,36.1464 31.6598,36.1774 C32.2968,36.2054 32.7108,36.5664 32.8018,37.2174 C32.8848,37.8084 32.8458,38.3824 32.4768,38.8954 C32.3148,39.1194 32.1808,39.3874 32.3258,39.6594 C32.4848,39.9584 32.7948,39.9634 33.0958,39.9614 C33.7548,39.9564 34.4128,39.9594 35.0698,39.9594 M23.4338,20.5544 C23.4698,20.5884 23.5078,20.6184 23.5448,20.5614 C23.5498,20.5534 23.5108,20.5184 23.4928,20.4964 C22.9078,18.6744 22.3178,16.8544 21.7428,15.0304 C21.6478,14.7284 21.5258,14.7714 21.3148,14.8994 C20.4078,15.4514 19.5568,16.0774 18.7448,16.7594 C18.5768,16.8994 18.4928,16.9944 18.7288,17.1634 C20.3018,18.2884 21.8668,19.4224 23.4338,20.5544 M7.1198,31.5604 C7.0108,18.3564 17.8948,7.3054 31.3758,7.33633494 C44.5878,7.3664 55.5918,17.9664 55.5868017,31.5734 C55.5808,45.0604 44.7488,55.8124 31.3048,55.802407 C17.6858,55.7914 7.0238,44.6834 7.1198,31.5604"/>
      <path fill="#E0547F" d="M35.0703,39.9594 C34.4123,39.9594 33.7543,39.9564 33.0963,39.9614 C32.7953,39.9634 32.4853,39.9584 32.3253,39.6594 C32.1813,39.3874 32.3143,39.1194 32.4763,38.8954 C32.8463,38.3824 32.8843,37.8084 32.8023,37.2174 C32.7113,36.5664 32.2973,36.2054 31.6603,36.1774 C30.9453,36.1464 30.5343,36.4244 30.3593,37.0874 C30.1923,37.7184 30.2733,38.3214 30.6403,38.8694 C30.8133,39.1264 30.9373,39.4044 30.7833,39.6874 C30.6363,39.9574 30.3383,39.9624 30.0543,39.9614 C28.7013,39.9574 27.3483,39.9464 25.9963,39.9684 C25.6373,39.9744 25.4873,39.8494 25.3843,39.5164 C24.9843,38.2254 24.5553,36.9434 24.1383,35.6584 C24.0543,35.3984 23.9173,35.1224 24.1483,34.8844 C24.3763,34.6494 24.6743,34.6744 24.9663,34.7684 C25.5853,34.9694 26.1633,34.8284 26.7043,34.5244 C27.2873,34.1984 27.4713,33.6544 27.2523,33.0264 C27.0323,32.3944 26.5583,32.1024 25.8893,32.2004 C25.2903,32.2874 24.7703,32.5264 24.3913,33.0214 C24.2183,33.2464 24.0013,33.4494 23.7123,33.4154 C23.3713,33.3744 23.2903,33.0574 23.1983,32.7734 C22.7833,31.4874 22.3733,30.2004 21.9393,28.9214 C21.8413,28.6304 21.8813,28.4724 22.1393,28.2904 C23.2753,27.4904 24.3903,26.6634 25.5183,25.8524 C25.7163,25.7094 25.9043,25.4494 26.1903,25.6114 C26.4693,25.7684 26.5343,26.0624 26.5403,26.3684 C26.5513,27.0164 26.8623,27.5234 27.3253,27.9384 C27.8163,28.3794 28.3373,28.3874 28.8723,28.0004 C29.4033,27.6164 29.5573,27.1144 29.2973,26.5094 C29.0503,25.9334 28.6503,25.4944 28.0493,25.2724 C27.7623,25.1664 27.4893,25.0284 27.4333,24.7124 C27.3723,24.3714 27.7013,24.2674 27.9123,24.1124 C29.0033,23.3124 30.1043,22.5264 31.1903,21.7214 C31.4383,21.5374 31.6103,21.4824 31.8943,21.6974 C33.0023,22.5344 34.1393,23.3344 35.2603,24.1524 C35.8203,24.5604 35.7753,24.9664 35.1103,25.2164 C34.5063,25.4434 34.0843,25.8414 33.8053,26.3984 C33.4873,27.0324 33.6333,27.5874 34.1913,27.9904 C34.7483,28.3934 35.3113,28.3544 35.8203,27.8514 C36.2353,27.4414 36.5143,26.9554 36.5283,26.3544 C36.5343,26.0454 36.5963,25.7514 36.8793,25.5994 C37.1843,25.4354 37.3873,25.7034 37.6023,25.8574 C38.6993,26.6484 39.7853,27.4544 40.8923,28.2304 C41.1933,28.4414 41.2833,28.6214 41.1543,28.9904 C40.7213,30.2314 40.3313,31.4874 39.9273,32.7384 C39.8353,33.0224 39.7393,33.3224 39.3983,33.3684 C39.1013,33.4074 38.8833,33.2214 38.7133,32.9904 C38.3673,32.5204 37.8723,32.2954 37.3253,32.1804 C36.6153,32.0304 36.0863,32.3334 35.8553,32.9924 C35.6163,33.6734 35.8283,34.2034 36.4873,34.5434 C37.0103,34.8134 37.5643,34.8904 38.1353,34.7334 C38.4333,34.6514 38.7313,34.6114 38.9523,34.8514 C39.1633,35.0784 39.0713,35.3584 38.9833,35.6284 C38.5563,36.9294 38.1273,38.2304 37.7253,39.5384 C37.6193,39.8854 37.4443,39.9804 37.0993,39.9674 C36.4243,39.9404 35.7473,39.9594 35.0703,39.9594"/>
      <path fill="#E0547F" d="M18.4424 33.8768C17.2844 33.8578 16.1464 34.0238 15.0164 34.2548 14.6904 34.3218 14.3634 34.3378 14.0354 34.3228 12.7664 34.2648 11.8694 33.3348 11.8574 32.0728 11.8114 27.4088 13.2044 23.2298 16.0724 19.5458 16.6304 18.8288 17.6924 18.5808 18.5244 18.9658 19.0134 19.1928 19.4214 19.5258 19.7824 19.9208 20.6724 20.8978 21.6504 21.7678 22.7494 22.5088 24.0834 23.4078 24.0984 23.5728 23.1734 24.8498 22.4654 25.8268 21.7654 26.8088 21.0424 27.7738 20.8334 28.0528 20.7374 28.3268 20.7414 28.6768 20.7584 30.1388 20.7224 31.6028 20.7634 33.0638 20.7764 33.5688 20.5794 33.7288 20.1364 33.8148 19.5704 33.9228 19.0074 33.8778 18.4424 33.8768M14.9531 41.5697C14.8121 40.5507 15.4931 39.8517 16.4291 39.4007 17.8651 38.7077 19.2521 37.9497 20.5041 36.9557 20.5601 36.9097 20.6261 36.8757 20.6891 36.8387 21.5301 36.3417 21.6001 36.3577 22.1701 37.1417 22.9861 38.2647 23.8101 39.3817 24.6141 40.5137 24.7951 40.7677 25.0101 40.9157 25.3011 41.0077 26.7441 41.4667 28.1791 41.9557 29.6271 42.3967 30.0101 42.5127 30.1091 42.7057 30.0701 43.0657 30.0261 43.4677 29.9381 43.8607 29.7961 44.2347 29.3391 45.4377 29.0761 46.6817 28.9401 47.9587 28.9001 48.3397 28.8211 48.7157 28.6851 49.0767 28.2101 50.3457 27.0971 50.9047 25.8091 50.5037 21.3751 49.1227 17.8511 46.5067 15.2191 42.6847 14.9121 42.2397 14.9161 42.2367 14.9531 41.5697M48.1279 41.5404C48.2389 41.9664 48.0839 42.2934 47.8559 42.6264 45.1589 46.5564 41.5419 49.2184 36.9689 50.5764 36.3149 50.7704 35.1729 50.3644 34.7829 49.8064 34.3719 49.2194 34.2129 48.5474 34.1399 47.8504 34.0109 46.6274 33.7379 45.4384 33.3189 44.2824 32.7499 42.7144 32.7979 42.6224 34.3559 42.1174 35.4839 41.7524 36.6099 41.3754 37.7439 41.0234 38.0749 40.9204 38.3129 40.7484 38.5139 40.4644 39.3939 39.2284 40.3059 38.0164 41.1749 36.7734 41.4049 36.4454 41.6199 36.4084 41.9479 36.5634 42.3299 36.7454 42.6909 36.9564 43.0209 37.2204 43.9969 38.0024 45.0759 38.6084 46.2079 39.1324 46.5049 39.2694 46.8009 39.4214 47.0699 39.6054 47.7519 40.0724 48.2539 40.6504 48.1279 41.5404M31.5337 12.0525311C33.8567 12.0576 36.1117 12.4506 38.2927 13.2546 39.1997 13.5876 39.7317 14.5106 39.5597 15.4586 39.4637 15.9866 39.2607 16.4696 38.9957 16.9346 38.3717 18.0326 37.8637 19.1796 37.5137 20.3996 37.0527 22.0046 36.8827 22.0846 35.3417 21.5836 34.2307 21.2216 33.1167 20.8706 32.0117 20.4916 31.6797 20.3776 31.3867 20.3876 31.0577 20.4976 29.6567 20.9666 28.2417 21.3996 26.8437 21.8796 26.4707 22.0076 26.2627 21.9186 26.0747 21.6096 25.8337 21.2166 25.6607 20.7986 25.5397 20.3556 25.2097 19.1506 24.6977 18.0226 24.0827 16.9386 23.8567 16.5386 23.6677 16.1276 23.5657 15.6776 23.3037 14.5246 23.8197 13.5686 24.9247 13.1816 27.0637 12.4326 29.2647 12.0466 31.5337 12.0525311M42.3413 30.8309C42.7933 28.9059 41.9943 27.4019 40.7743 26.0089 40.2463 25.4069 39.8363 24.7029 39.3393 24.0719 39.1203 23.7929 39.1583 23.5959 39.3603 23.3549 39.6443 23.0149 39.9723 22.7249 40.3413 22.4849 41.4233 21.7849 42.3663 20.9269 43.2353 19.9809 43.5453 19.6429 43.8833 19.3369 44.2833 19.1059 45.2963 18.5229 46.3183 18.7149 47.0323 19.6449 49.9483 23.4439 51.3203 27.7379 51.1453 32.5239 51.1213 33.1759 50.3383 34.0489 49.6453 34.2089 49.0453 34.3479 48.4493 34.3069 47.8523 34.1839 46.6133 33.9309 45.3653 33.7849 44.0973 33.8669 44.0253 33.8719 43.9513 33.8719 43.8783 33.8719 42.4483 33.8689 42.3413 33.7639 42.3413 32.3659L42.3413 30.8309zM44.5229 35.8988C44.7529 35.7338 44.9589 35.8038 45.1479 35.8028 46.8459 35.7958 48.5439 35.8088 50.2409 35.7918 50.6369 35.7878 50.7529 35.8828 50.6449 36.2878 50.3809 37.2758 50.0849 38.2518 49.6889 39.1948 49.6369 39.3188 49.6259 39.5728 49.3719 39.3898 47.7629 38.2328 46.1539 37.0738 44.5229 35.8988M31.5459 45.1654C32.1319 46.9754 32.6819 48.6714 33.2309 50.3674 33.5289 51.2904 33.5279 51.3074 32.5219 51.3214 31.6659 51.3334 30.8079 51.3104 29.9509 51.2904 29.7789 51.2864 29.5579 51.2914 29.6569 50.9874 30.2769 49.0864 30.8919 47.1834 31.5459 45.1654M18.5298 35.85C18.4438 36.087 18.2798 36.143 18.1548 36.234 16.7348 37.259 15.3088 38.275 13.8948 39.307 13.6188 39.508 13.4738 39.576 13.3218 39.176 12.9598 38.221 12.6308 37.257 12.3878 36.263 12.3218 35.993 12.2958 35.838 12.6758 35.841 14.6098 35.859 16.5428 35.85 18.5298 35.85M23.4336 20.5546C21.8666 19.4226 20.3016 18.2876 18.7286 17.1636 18.4926 16.9936 18.5776 16.8996 18.7446 16.7596 19.5576 16.0776 20.4086 15.4516 21.3146 14.8996 21.5256 14.7716 21.6476 14.7286 21.7436 15.0306 22.3176 16.8546 22.9076 18.6746 23.4936 20.4956 23.4726 20.5146 23.4536 20.5346 23.4336 20.5546M39.4648 20.7084C40.1248 18.7124 40.7358 16.8794 41.3338 15.0424 41.4128 14.7964 41.4988 14.7644 41.7158 14.8974 42.6368 15.4634 43.5018 16.1054 44.3328 16.7964 44.5418 16.9704 44.4968 17.0604 44.3038 17.1994 42.7338 18.3314 41.1698 19.4704 39.4648 20.7084"/>
      <path fill="#D2DCE8" d="M23.4931,20.496 C23.5111,20.518 23.5501,20.554 23.5451,20.561 C23.5081,20.619 23.4701,20.589 23.4341,20.554 C23.4531,20.535 23.4721,20.515 23.4931,20.496"/>
    </g>
  </g>
</svg>
