<svg xmlns="http://www.w3.org/2000/svg" width="75" height="75" viewBox="0 0 75 75">
  <g fill="none" fill-rule="evenodd" transform="translate(0 2)">
    <path fill="#000" d="M2.53179946,47.0807516 L16.0368967,47.7903159 L10.8757958,53.5675776 L2.27721116,49.8204281 C2.23062691,49.8009286 2.21112653,49.7803459 2.19812628,49.7835958 L2.15154204,47.2074982 C2.25554407,47.114334 2.39313009,47.0677519 2.53179946,47.0807516 L2.53179946,47.0807516 Z M6.53371098,23.5784652 C6.46654301,23.560049 6.41129193,23.5123836 6.38312471,23.4484687 L5.42435598,19.1705 C5.40593895,19.109835 5.42002256,19.0437534 5.45902332,18.9950048 C5.49260731,18.9473394 5.54677504,18.9170068 5.60527618,18.9126736 L41.8326506,18.9126736 L32.0434594,29.8713798 L6.53371098,23.5784652 Z M50.2318981,12.7616719 C51.2350843,11.6382854 52.5784439,10.8723892 54.0572228,10.583147 L61.1250276,9.19651752 C61.2203627,9.17810135 61.3178647,9.16834572 61.4164499,9.16834572 C61.7912906,9.1672683 62.1509643,9.31568099 62.4163861,9.58000723 C62.752226,9.90933174 62.8995622,10.3849023 62.8096438,10.8463899 L61.2777805,19.0881689 C61.1542781,19.7284018 60.8466054,20.3188026 60.3926799,20.78679 L15.7584745,61.0976257 C15.7216405,61.1312081 15.6739729,61.1496243 15.6241386,61.1507076 C15.6241386,61.1507076 13.4888469,61.4616159 12.3654083,61.1658739 C11.6449775,60.9752123 11.0415491,60.5180579 10.8812126,59.5864162 C10.7208761,58.6536912 10.8974629,56.8673225 10.8974629,56.8673225 C10.8974629,56.8207404 10.9158799,56.7752416 10.9472972,56.7416592 L50.2318981,12.7616719 Z M54.1720584,64.2478746 C54.1720584,64.2944566 54.1493079,64.3388721 54.1103072,64.3659547 C54.0507227,64.4114535 53.9727211,64.4277031 53.9001364,64.4082036 L49.9339756,63.5047278 C49.8613908,63.4906449 49.8018063,63.4429795 49.770389,63.3768979 L43.404598,39.046967 L54.1720584,29.3210612 L54.1720584,64.2478746 Z M26.0015913,69.4639847 C25.9994246,69.589648 25.9766742,69.7153113 25.9344234,69.8333914 L23.2888717,69.8442245 C23.2888717,69.8442245 19.2815434,61.0001283 19.194875,60.913464 L25.1804086,55.5066923 L26.0015913,69.4639847 Z M1.43002794,51.8147913 L9.35693281,55.2694487 L9.32984895,55.2986979 C8.94742481,55.7266031 8.73508733,56.2790883 8.73075391,56.8532395 L8.71125353,60.1562343 C8.71125353,61.7096926 10.6797087,63.3324824 12.2960736,63.3324824 L12.3199074,63.3324824 L15.6349721,63.3173162 C16.2189002,63.3140663 16.7822445,63.0952388 17.214503,62.7019993 L17.5600931,62.3889244 L21.2348315,70.593871 C21.5555045,71.4258487 22.3463533,71.9805005 23.2368707,72 L25.9344234,72 C26.5161847,71.9967501 27.0708622,71.7519233 27.46737,71.3261847 C27.9602963,70.7899491 28.2127179,70.0749683 28.1650503,69.3469878 L27.2528658,53.8546533 C27.2431156,53.7939882 27.2268653,53.7354898 27.2062815,53.6769914 L41.5921459,40.6838398 L47.6751814,63.9261332 C47.905936,64.7700272 48.5830325,65.4200098 49.4367159,65.6139213 L53.4202104,66.5206469 C53.5989638,66.5618125 53.7820508,66.5823953 53.966221,66.5834786 C54.510065,66.5834786 55.0376586,66.3993169 55.4623336,66.0602426 C56.0159277,65.6204211 56.3387674,64.9531056 56.3387674,64.2478746 L56.3387674,27.62569 C56.3322672,27.550942 56.3171003,27.476194 56.2943498,27.4046959 L61.8866258,22.353248 C62.6720578,21.5732689 63.2018181,20.5722958 63.4076555,19.483575 L64.9395187,11.241796 C65.157273,10.0707441 64.7791823,8.86827632 63.9319991,8.03196541 C63.0837325,7.19673781 61.8757922,6.83599749 60.7079361,7.06999121 L53.639048,8.45662069 C51.6965933,8.8379438 49.9328922,9.84325017 48.6155331,11.3187106 L43.7675218,16.7460651 L5.58794251,16.7460651 C4.86859512,16.7568981 4.19258191,17.0938057 3.75057328,17.6625405 C3.30856464,18.2312752 3.14822817,18.9690055 3.31614812,19.6699033 L4.28033363,23.9706213 C4.50675472,24.8090988 5.16543425,25.4623313 6.0072007,25.6800755 L30.4108441,31.6989141 L17.8861828,45.7201214 L2.62821801,44.9163096 C1.90128715,44.8794773 1.19168995,45.138387 0.65976289,45.6356237 C0.239421344,46.0299464 0.0010833545,46.5813483 0,47.1587495 L0.032500635,49.823678 C0.0530843705,50.7087376 0.604511811,51.4941332 1.43002794,51.8147913 L1.43002794,51.8147913 Z"/>
    <path fill="#000" d="M53.1664723,15.3333333 L56.6670555,15.3333333 L56.6670555,18.8333333 C56.6670555,19.4785 57.1896351,20 57.8335277,20 C58.4774204,20 59,19.4785 59,18.8333333 L59,15.3333333 C58.9988335,14.0453333 57.9548409,13.0011667 56.6670555,13 L53.1664723,13 C52.5225796,13 52,13.5226667 52,14.1666667 C52,14.8106667 52.5225796,15.3333333 53.1664723,15.3333333"/>
    <polyline stroke="#000" stroke-linecap="round" stroke-linejoin="round" stroke-width="2.25" points="13 16.746 18.068 10 24 13.055 20.884 17"/>
    <polyline stroke="#000" stroke-linecap="round" stroke-linejoin="round" stroke-width="2.25" points="27 16.746 32.067 10 38 13.055 34.884 17"/>
    <polyline stroke="#000" stroke-linecap="round" stroke-linejoin="round" stroke-width="2.25" points="56.254 58 63 52.933 59.945 47 56 50.115"/>
    <polyline stroke="#000" stroke-linecap="round" stroke-linejoin="round" stroke-width="2.25" points="56.254 44 63 38.933 59.945 33 56 36.116"/>
    <line x1="2" x2="73" y2="71" stroke="#A30F44" stroke-linecap="round" stroke-linejoin="round" stroke-width="2.5"/>
  </g>
</svg>
