<svg xmlns="http://www.w3.org/2000/svg" xmlns:xlink="http://www.w3.org/1999/xlink" width="36" height="65" viewBox="0 0 36 65">
  <defs>
    <polygon id="icon_temperature-a" points=".237 -.004 22.942 -.004 22.942 52.068 .237 52.068"/>
  </defs>
  <g fill="none" fill-rule="evenodd" transform="translate(1 1)">
    <g transform="translate(5.424 11.075)">
      <mask id="icon_temperature-b" fill="#fff">
        <use xlink:href="#icon_temperature-a"/>
      </mask>
      <path fill="#000" d="M6.23739661,33.6227797 L7.2136678,32.8645424 L7.2136678,6.82955932 C7.2136678,4.44420339 9.16621017,2.59905085 11.4441763,2.59905085 C13.8306169,2.59905085 15.7831593,4.55159322 15.7831593,6.82955932 L15.7831593,32.8645424 L16.7594305,33.6227797 C19.0373966,35.2498983 20.3390915,37.9617627 20.3390915,40.7831864 C20.3390915,43.1696271 19.3628203,45.4465085 17.7357017,47.0736271 C16.0001085,48.7007458 13.8306169,49.6781017 11.4441763,49.6781017 C6.99671864,49.6781017 3.5255322,46.5312542 2.76621017,42.6272542 C2.22383729,39.0465085 3.5255322,35.5764068 6.23739661,33.6227797 M9.38315932,51.8475932 C16.6509559,53.2577627 22.9424814,47.7244746 22.9424814,40.6736271 C22.9424814,36.9865763 21.0984136,33.6227797 18.2780746,31.5628475 L18.2780746,6.72108475 C18.2780746,3.03294915 15.349261,-0.00433898305 11.5526508,-0.00433898305 C7.86451525,-0.00433898305 4.82722712,3.03294915 4.82722712,6.72108475 L4.82722712,31.5628475 C1.46451525,34.056678 -0.488027119,38.2882712 0.488244068,43.0600678 C1.35604068,47.3990508 4.93570169,50.9787119 9.38315932,51.8475932" mask="url(#icon_temperature-b)"/>
    </g>
    <path fill="#000" d="M16.9762712,58.1489898 C18.7118644,58.1489898 20.3389831,57.4981424 21.5322034,56.304922 C22.7254237,55.1117017 23.3762712,53.4845831 23.3762712,51.7489898 C23.3762712,47.4100068 19.6881356,45.9998373 18.7118644,45.1320407 L18.7118644,24.6303458 L15.1322034,24.6303458 L15.1322034,45.1320407 C14.3728814,45.9998373 9.6,47.7354305 10.6847458,53.0506847 C11.2271186,55.8710237 13.7220339,58.1489898 16.9762712,58.1489898"/>
    <line x1="17.013" x2="17.013" y1="6.711" y2=".271" stroke="#A30F44" stroke-linecap="round" stroke-linejoin="round" stroke-width="2.5"/>
    <line x1="24.286" x2="28.839" y1="9.322" y2="4.768" stroke="#A30F44" stroke-linecap="round" stroke-linejoin="round" stroke-width="2.5"/>
    <line x1="9.715" x2="5.161" y1="9.322" y2="4.768" stroke="#A30F44" stroke-linecap="round" stroke-linejoin="round" stroke-width="2.5"/>
    <line x1="6.711" x2=".271" y1="14.295" y2="14.295" stroke="#A30F44" stroke-linecap="round" stroke-linejoin="round" stroke-width="2.5"/>
    <line x1="33.583" x2="27.143" y1="14.295" y2="14.295" stroke="#A30F44" stroke-linecap="round" stroke-linejoin="round" stroke-width="2.5"/>
  </g>
</svg>
