<svg xmlns="http://www.w3.org/2000/svg" xmlns:xlink="http://www.w3.org/1999/xlink" width="59" height="69" viewBox="0 0 59 69">
  <defs>
    <polygon id="icon_wash-hands-a" points=".171 .695 6.6 .695 6.6 6.993 .171 6.993"/>
    <polygon id="icon_wash-hands-c" points="0 .779 52.709 .779 52.709 40 0 40"/>
    <polygon id="icon_wash-hands-e" points=".357 .903 10.34 .903 10.34 13.65 .357 13.65"/>
    <polygon id="icon_wash-hands-g" points=".373 .903 10.357 .903 10.357 13.65 .373 13.65"/>
  </defs>
  <g fill="none" fill-rule="evenodd">
    <path fill="#A30F44" d="M36.998748,25.085836 C36.1601066,24.2708257 35.9336122,23.0346275 36.4306755,21.987607 L39.001693,18.0279655 L41.5727104,21.987607 C42.2277077,23.3677704 41.6069907,25.0025503 40.1868096,25.6379014 C39.1106552,26.1209586 37.8386137,25.9008463 36.9999723,25.085836 L36.998748,25.085836 Z M42.5362298,26.5754607 C44.0408872,25.1108217 44.4277641,22.8811438 43.4997492,21.0191129 C43.4813848,20.9834191 43.4617961,20.948915 43.4409831,20.9167905 L39.9174649,15.4913203 C39.5991485,14.9987447 38.9294596,14.8523998 38.4226019,15.1629365 C38.285481,15.2462223 38.1703973,15.3592529 38.0834725,15.4913203 L34.5611786,20.9179803 C34.5403656,20.9501048 34.5207769,20.9846088 34.5024124,21.0203027 C33.2977071,23.434399 34.3334599,26.3410709 36.8187767,27.51302 C38.7347969,28.4160753 41.0291239,28.0400997 42.5362298,26.5766505 L42.5362298,26.5754607 Z"/>
    <path fill="#000" d="M27.9358974 22.9994173C27.9358974 24.0680262 27.0699301 24.9350328 26 24.9350328 24.9312354 24.9350328 24.0641026 24.0691916 24.0641026 22.9994173 24.0641026 21.9308084 24.9312354 21.0638019 26 21.0638019L26 21.0638019C27.0687646 21.0649672 27.9347319 21.9308084 27.9358974 22.9994173M22 22.9994173C22 25.2088857 23.7902098 27 26 27 28.2086247 27 30 25.2088857 30 22.9994173 30 20.7911143 28.2097902 19 26 19 23.7913753 19.0023307 22.002331 20.7911143 22 22.9994173M15.9358974 17C15.9358974 18.0687646 15.0687646 18.9358974 14 18.9358974 12.9312354 18.9358974 12.0641026 18.0687646 12.0641026 17 12.0641026 15.9312354 12.9300699 15.0641026 14 15.0641026 15.0687646 15.0652681 15.9347319 15.9312354 15.9358974 17M10 17C10 19.2097902 11.7902098 21 14 21 16.2086247 21 18 19.2097902 18 17 18 14.7902098 16.2097902 13 14 13 11.7913753 13.002331 10.002331 14.7913753 10 17M48.1935096 63.5C48.1935096 64.4350962 47.4362981 65.1935096 46.5 65.1935096 45.5649038 65.1935096 44.8064904 64.4350962 44.8064904 63.5 44.8064904 62.5649038 45.5637019 61.8064904 46.5 61.8064904 47.4350962 61.8076923 48.1935096 62.5649038 48.1935096 63.5M43 63.5C43 65.4326923 44.5673077 67 46.5 67 48.4326923 67 50 65.4326923 50 63.5 50 61.5673077 48.4326923 60 46.5 60L46.5 60C44.5685096 60.0024038 43.0024038 61.5685096 43 63.5"/>
    <g transform="translate(52 50)">
      <mask id="icon_wash-hands-b" fill="#fff">
        <use xlink:href="#icon_wash-hands-a"/>
      </mask>
      <path fill="#000" d="M4.94176667,3.84365714 C4.94176667,4.6848 4.24526667,5.36822857 3.3866,5.36822857 C2.52676667,5.36822857 1.83026667,4.68594286 1.83026667,3.8448 C1.83026667,3.00365714 2.52676667,2.32022857 3.3866,2.32022857 C4.2441,2.32137143 4.9406,3.00365714 4.94176667,3.84365714 M0.171266667,3.84365714 C0.171266667,5.58308571 1.61093333,6.99337143 3.3866,6.99337143 C5.1611,6.99337143 6.5996,5.58308571 6.60076667,3.8448 C6.60076667,2.10537143 5.1611,0.695085714 3.3866,0.695085714 C1.6121,0.697371429 0.1736,2.10537143 0.171266667,3.84365714" mask="url(#icon_wash-hands-b)"/>
    </g>
    <g transform="translate(0 29)">
      <mask id="icon_wash-hands-d" fill="#fff">
        <use xlink:href="#icon_wash-hands-c"/>
      </mask>
      <path fill="#000" d="M50.2130244,14.8412941 L47.2921356,17.2189412 C47.2414911,17.2612941 47.19438,17.3071765 47.15198,17.3577647 C47.05658,17.4189412 46.9635356,17.4871765 46.8752022,17.5601176 L41.1182244,22.2483529 C40.6694911,22.6095294 40.5976467,23.2636471 40.9592244,23.7130588 C41.3208022,24.1612941 41.9768244,24.2318824 42.4267356,23.8718824 C42.4302689,23.8683529 42.4338022,23.866 42.4361578,23.8624706 L48.1931356,19.1742353 C48.66778,18.7871765 49.36738,18.8577647 49.7548689,19.3318824 C50.1423578,19.8071765 50.0705133,20.5048235 49.5958689,20.8930588 L36.06438,31.9154118 C34.7040467,33.0224706 32.9397356,33.5083529 31.2025133,33.2542353 C30.8762689,33.1624706 30.5252911,33.2365882 30.2614689,33.4495294 L25.6728467,37.1871765 C24.2760022,38.3224706 22.2219578,38.1130588 21.0818689,36.7212941 L16.1834911,30.7201176 C15.0457578,29.326 15.2554022,27.2718824 16.6510689,26.1354118 L19.4376911,23.866 C19.4553578,23.8507059 19.4718467,23.8365882 19.4895133,23.8212941 L20.3068911,23.0601176 C20.5848467,22.8036471 20.7002689,22.4154118 20.60958,22.0483529 C20.1149133,20.0177647 20.8286467,17.8836471 22.4469133,16.5589412 L34.1504911,7.026 C34.6734244,7.71423529 34.9148689,8.57423529 34.82418,9.43305882 C34.7346689,10.3365882 34.2871133,11.1671765 33.5816244,11.7377647 L29.6148689,14.9695294 C29.1661356,15.3307059 29.0942911,15.986 29.4558689,16.4342353 C29.8174467,16.8824706 30.4734689,16.9542353 30.92338,16.5930588 C30.9269133,16.5895294 30.9292689,16.5871765 30.9328022,16.5836471 L34.8995578,13.3542353 L42.5339133,7.13658824 C43.0085578,6.74952941 43.7081578,6.82129412 44.0956467,7.29541176 C44.4831356,7.76952941 44.4112911,8.46835294 43.9366467,8.85541176 L34.0091578,16.9401176 C33.5604244,17.3012941 33.48858,17.9565882 33.8501578,18.406 C34.2117356,18.8542353 34.8689356,18.9248235 35.3176689,18.5636471 C35.3200244,18.5612941 35.3235578,18.5577647 35.3270911,18.5554118 L45.2557578,10.4683529 L47.7585356,8.43070588 C48.23318,8.04364706 48.93278,8.11541176 49.3190911,8.58952941 C49.70658,9.06364706 49.6359133,9.76247059 49.1600911,10.1495294 L47.4923578,11.5071765 L44.9884022,13.546 L36.7298244,20.2730588 C36.2787356,20.6318824 36.2033578,21.2871765 36.56258,21.7365882 C36.9206244,22.1871765 37.5766467,22.2624706 38.0277356,21.9048235 C38.0348022,21.8989412 38.0418689,21.8930588 38.0477578,21.8871765 L48.6736689,13.2342353 L48.8102911,13.1224706 C49.2814022,12.7307059 49.9810022,12.7954118 50.3732022,13.266 C50.7654022,13.7365882 50.7018022,14.4354118 50.2306911,14.8271765 L50.2130244,14.8412941 Z M10.60318,18.5824706 C10.4724467,18.0224706 9.91064667,17.6742353 9.35002444,17.806 C8.80235778,17.9189412 8.45138,18.4554118 8.56562444,19.0024706 C8.56798,19.0118824 8.56915778,19.0201176 8.57151333,19.0283529 C8.72580222,19.6695294 8.96018,20.2895294 9.26758,20.8730588 L5.30553556,20.8730588 C3.54829111,20.8954118 2.10786889,19.4895294 2.08656372,17.7342353 L2.08656372,17.6707059 L2.08656372,9.92952941 C2.07253556,8.17658824 3.48469111,6.746 5.23958,6.73188235 C5.26078,6.73188235 5.28433556,6.73188235 5.30553556,6.73305882 L8.53853556,6.73305882 C8.41133556,7.26129412 8.35009111,7.80364706 8.35362444,8.34717647 C8.34773556,10.7542353 9.30762444,13.0648235 11.0189356,14.7601176 L11.4582467,15.1907059 C11.8669356,15.5977647 12.5288467,15.5965882 12.9375356,15.1871765 C13.3438689,14.7777647 13.3426911,14.1165882 12.9340022,13.7095294 L12.4946911,13.2707059 C11.1744022,11.9507059 10.4347578,10.1601176 10.4394689,8.29541176 C10.4418244,5.30482353 12.8621578,2.87776471 15.8548911,2.86247059 L30.9563578,2.86247059 C30.8892244,4.79776471 29.3804911,6.13776471 27.5349133,6.13776471 L21.3456911,6.13776471 C20.7638689,6.15188235 20.2998244,6.62952941 20.30218,7.21070588 C20.30218,8.83423529 18.98778,10.1530588 17.3624467,10.1612941 C16.7853356,10.166 16.3189356,10.6354118 16.3189356,11.2118824 C16.3212911,11.7754118 16.7806244,12.2295294 17.3436022,12.2271765 C17.3494911,12.2271765 17.3565578,12.2271765 17.3624467,12.226 C19.7556911,12.2554118 21.8262244,10.5683529 22.2796689,8.22129412 L29.3074689,8.22129412 L26.5844467,10.4542353 L24.5751578,10.4542353 C23.9874467,10.4648235 23.5198689,10.9495294 23.5304689,11.5354118 C23.5387133,11.9401176 23.7754467,12.306 24.1417356,12.4777647 L21.1278022,14.9389412 C19.0631578,16.6318824 18.0479133,19.2907059 18.4601356,21.9283529 L18.0938467,22.2707059 L16.5309356,23.5436471 C13.7572689,23.3965882 11.2415356,21.3142353 10.60318,18.5824706 L10.60318,18.5824706 Z M51.3719578,18.0165882 L51.3719578,18.0165882 C51.1316911,17.7236471 50.8419578,17.4754118 50.5133578,17.286 L51.5309578,16.4565882 C52.8983578,15.346 53.1056467,13.3365882 51.9926467,11.9707059 C51.7288244,11.646 51.40258,11.3765882 51.0339356,11.1777647 C52.0786244,9.75776471 51.77358,7.76011765 50.3520022,6.71658824 C49.1777578,5.85423529 47.5677356,5.89541176 46.4394244,6.81658824 L46.24038,6.96482353 C46.1579356,6.72129412 46.0413356,6.49070588 45.8952911,6.27776471 C45.8952911,6.27776471 45.1827356,5.13894118 43.5420911,4.81894118 C42.7023356,4.73070588 41.8602244,4.98364706 41.2077356,5.52129412 L36.92298,9.01423529 C36.9112022,7.77188235 36.4742467,6.56952941 35.6863133,5.60835294 C35.3588911,5.206 34.8842467,4.94952941 34.36838,4.89894118 C33.8560467,4.83423529 33.3390022,4.97776471 32.9338467,5.29776471 L31.8644244,6.13776471 L31.8479356,6.13776471 C32.6311578,5.17305882 33.05398,3.96717647 33.0457356,2.72482353 C33.04338,1.64835294 32.1682911,0.776588235 31.0894467,0.778841694 L31.0882689,0.778841694 L15.8548911,0.778841694 C13.1377578,0.764823529 10.63498,2.25423529 9.35238,4.64835294 L5.30553556,4.64835294 C2.39760222,4.626 0.0220244444,6.96364706 0.000824444444,9.86717647 C-0.000397417845,9.88835294 -0.000397417845,9.90952941 -0.000397417845,9.92952941 L-0.000397417845,17.6707059 C-0.0121311111,20.5789412 2.33753556,22.9448235 5.24664667,22.9565882 L5.30553556,22.9565882 L10.7786689,22.9565882 C11.8198244,24.1483529 13.1271578,24.8471765 14.5546244,25.2695294 C12.9634467,27.2448235 12.9681578,30.0624706 14.56758,32.0295294 L19.4659578,38.0342353 C21.3327356,40.3189412 24.6988244,40.6612941 26.99078,38.8012941 L31.2213578,35.3554118 C33.4367578,35.5930588 35.6545133,34.9342353 37.3823133,33.5295294 L50.7218244,22.6601176 L50.91498,22.506 C52.28238,21.3930588 52.4873133,19.3848235 51.3743133,18.0189412 C51.3731356,18.0177647 51.3731356,18.0177647 51.3719578,18.0165882 L51.3719578,18.0165882 Z" mask="url(#icon_wash-hands-d)"/>
    </g>
    <path fill="#A30F44" d="M49.998748,31.0858241 C49.1601066,30.2708104 48.9336122,29.0346072 49.4306755,27.9875823 L52.001693,24.0279247 L54.5727104,27.9875823 C55.2277077,29.3677515 54.6069907,31.002538 53.1868096,31.6390815 C52.1106552,32.1209509 50.8386137,31.9008377 49.9999723,31.0858241 L49.998748,31.0858241 Z M55.5362298,32.5754549 C57.0408872,31.1119997 57.4277641,28.8811229 56.4997492,27.0190843 C56.4813848,26.9833903 56.4617961,26.9488861 56.4409831,26.9167615 L52.9174649,21.4924588 C52.5991485,20.9986914 51.9294596,20.8523459 51.4226019,21.162884 C51.285481,21.24617 51.1703973,21.3592011 51.0834725,21.4924588 L47.5611786,26.9179513 C47.5403656,26.9500759 47.5207769,26.9845801 47.5024124,27.0202741 C46.2977071,29.4343803 47.3334599,32.3410641 49.8187767,33.513018 C51.7347969,34.416077 54.0291239,34.0400999 55.5362298,32.5766447 L55.5362298,32.5754549 Z"/>
    <g transform="translate(42)">
      <mask id="icon_wash-hands-f" fill="#fff">
        <use xlink:href="#icon_wash-hands-e"/>
      </mask>
      <path fill="#A30F44" d="M3.35084444,10.7927167 C2.51362222,9.99355 2.28751111,8.78138333 2.78251111,7.75471667 L5.3504,3.87205 L7.91706667,7.75471667 C8.57095556,9.10805 7.95128889,10.71105 6.53351111,11.3352167 C5.45917778,11.8088833 4.18928889,11.5918833 3.35206667,10.7927167 L3.35084444,10.7927167 Z M8.87895556,12.2533833 C10.3810667,10.8183833 10.7672889,8.63088333 9.83962222,6.80505 C9.82251111,6.77005 9.80295556,6.73738333 9.78095556,6.70471667 L6.26462222,1.38588333 C5.94562222,0.901716667 5.27706667,0.758216667 4.77228889,1.06271667 C4.6354,1.14438333 4.52051111,1.25521667 4.43373333,1.38588333 L0.9174,6.70588333 C0.8954,6.73738333 0.875844444,6.77121667 0.858733333,6.80621667 C-0.343933333,9.17338333 0.690066667,12.02355 3.16995556,13.1727167 C5.08273333,14.0582167 7.3744,13.68955 8.87895556,12.25455 L8.87895556,12.2533833 Z" mask="url(#icon_wash-hands-f)"/>
    </g>
    <g transform="translate(25)">
      <mask id="icon_wash-hands-h" fill="#fff">
        <use xlink:href="#icon_wash-hands-g"/>
      </mask>
      <path fill="#A30F44" d="M3.36758889,10.7927167 C2.53036667,9.99355 2.30425556,8.78138333 2.79925556,7.75471667 L5.36592222,3.87205 L7.93381111,7.75471667 C8.5877,9.10805 7.96803333,10.71105 6.55025556,11.3352167 C5.47592222,11.8088833 4.20603333,11.5918833 3.36758889,10.7927167 Z M8.89447778,12.2533833 C10.3978111,10.8183833 10.7840333,8.63088333 9.85636667,6.80505 C9.83925556,6.77005 9.8197,6.73738333 9.7977,6.70471667 L6.28136667,1.38588333 C5.96236667,0.901716667 5.29381111,0.758216667 4.78903333,1.06271667 C4.65214444,1.14438333 4.53725556,1.25521667 4.45047778,1.38588333 L0.934144444,6.70588333 C0.912144444,6.73738333 0.892588889,6.77121667 0.875477778,6.80621667 C-0.328411111,9.17338333 0.706811111,12.02355 3.1867,13.1727167 C5.09947778,14.0582167 7.39114444,13.68955 8.89447778,12.25455 L8.89447778,12.2533833 Z" mask="url(#icon_wash-hands-h)"/>
    </g>
  </g>
</svg>
