<svg xmlns="http://www.w3.org/2000/svg" xmlns:xlink="http://www.w3.org/1999/xlink" width="55" height="66" viewBox="0 0 55 66">
  <defs>
    <polygon id="icon_mask-a" points=".001 .344 54.922 .344 54.922 65.919 .001 65.919"/>
  </defs>
  <g fill="none" fill-rule="evenodd" transform="translate(0 -1)">
    <polygon fill="#A30F44" points="31.028 36.763 52.292 37.227 53.617 40.009 46.727 58.357 43.019 59.484 30.961 59.351 27.717 58.424 26.92 54.979 25.794 38.75 28.975 37.027"/>
    <g transform="translate(0 .737)">
      <mask id="icon_mask-b" fill="#fff">
        <use xlink:href="#icon_mask-a"/>
      </mask>
      <path fill="#000" d="M52.0845032,39.3737387 L50.9476645,42.6643032 L50.1641968,44.9347387 L46.636971,55.1511581 C45.8729548,57.1406258 44.9889871,57.548029 43.8964548,57.548029 L33.102971,57.548029 L31.1491645,57.548029 C29.7119065,57.548029 28.4994226,56.6748677 28.4994226,55.6406903 L27.1334871,39.0906097 C27.170229,38.0780452 28.3686645,37.2297387 29.783229,37.2297387 L49.3601968,37.2297387 C50.2495677,37.2297387 50.9692774,37.3583355 51.4555677,37.5895935 C51.6889871,37.6998194 51.8726968,37.8305774 51.9872452,37.987271 C52.3081968,38.419529 52.1763581,39.0711581 52.0845032,39.3737387 L52.0845032,39.3737387 Z M8.83492258,63.1868355 C9.55787419,62.1764323 10.2538097,61.1433355 10.9173258,60.1415774 C11.9493419,58.5843677 12.8560032,55.876271 13.2028903,53.8759968 L25.6929871,54.7956258 L25.7675516,55.7022871 C25.8075355,58.2320774 28.2054871,60.2809806 31.1491645,60.2809806 L32.6555839,60.2809806 C32.7085355,61.2265452 32.9052129,62.2326258 33.2099548,63.1868355 L8.83492258,63.1868355 Z M10.2321968,42.5227387 L9.47466452,41.3750935 C7.36740645,38.1644968 5.21476129,34.8847387 3.92663226,30.9382226 L24.5647935,38.0272548 C24.4610516,38.3827871 24.4016161,38.754529 24.4016161,39.1381581 L25.4682129,52.0648355 L13.2028903,51.0587548 C13.2266645,49.9121903 13.1953258,49.7165935 13.0278258,48.4576419 C12.7392935,46.2823032 11.4079387,44.2841903 10.2321968,42.5227387 L10.2321968,42.5227387 Z M2.73792258,22.8333839 C2.87732581,16.1171742 7.10589032,11.0662387 10.6298742,8.01017419 C14.1906,4.91952903 20.2216806,3.07486774 26.7617452,3.07486774 C33.705971,3.07486774 39.6884226,5.16915806 42.7639387,8.67585161 C45.6806,12.0009968 47.5425516,16.5526742 47.8743097,21.1627065 C48.0861161,24.118271 47.7813742,24.8174484 46.8747129,26.8933677 C46.8671484,26.9095774 46.8422935,26.9679323 46.8368903,26.9841419 C46.0436968,29.0114323 47.742471,31.6784645 49.5741645,34.5054323 C49.5017613,34.5043516 49.4347613,34.4967871 49.3601968,34.4967871 L29.7821484,34.4978677 C28.4000032,34.4978677 27.1410516,34.9528194 26.1868419,35.6952226 L3.13127742,27.7751742 C2.85030968,26.2384968 2.70118065,24.6045613 2.73792258,22.8333839 L2.73792258,22.8333839 Z M54.1841968,36.3630613 C53.9972452,36.1091097 53.772471,35.8875774 53.5250032,35.6844161 C53.0581645,34.8631258 52.5070355,34.0061742 51.9429387,33.1362548 C51.0168258,31.7054806 49.0878742,28.7293839 49.3785677,27.9859 C50.4311161,25.5728194 50.8482452,24.4543516 50.5986161,20.9671097 C50.2257935,15.7756903 48.1185355,10.6383032 44.8171645,6.87441613 C41.2315839,2.78417419 34.4807935,0.342996774 26.7617452,0.342996774 C19.5830194,0.342996774 12.8819387,2.43836774 8.83816452,5.94614194 C5.61243871,8.7450129 0.175712903,14.6529 0.00713225806,22.7761097 C-0.040416129,25.0238516 0.176793548,27.0835613 0.582035484,28.9930613 C0.600406452,29.0784323 0.6231,29.1605613 0.641470968,29.2459323 C1.86692258,34.7539806 4.65066452,39.0063194 7.19234194,42.8739484 L7.96068065,44.0378032 C8.97108387,45.5528677 10.1144065,47.2689323 10.3208097,48.8142548 C10.8535677,52.8429 10.2873097,56.1464323 8.64040645,58.6319161 C7.51545484,60.331771 6.29864839,62.1202387 5.02780968,63.6958194 C4.69713226,64.1053839 4.63229355,64.6673194 4.85814839,65.1428032 C5.08508387,65.6161258 5.56489032,65.9187065 6.09008387,65.9187065 L35.2588581,65.9187065 C35.7408258,65.9187065 36.1860516,65.6658355 36.4335194,65.2508677 C36.6788258,64.8380613 36.6896323,64.3258355 36.4594548,63.9011419 C35.7981,62.6810935 35.4685032,61.3075935 35.3788097,60.2799 L43.8975355,60.2799 C47.5944226,60.2799 48.7928581,57.1557548 49.2035032,56.0859161 L54.6823742,40.2188032 C55.1254387,38.7674968 54.9492935,37.3983194 54.1841968,36.3630613 L54.1841968,36.3630613 Z" mask="url(#icon_mask-b)"/>
      <path stroke="#000" stroke-linecap="round" stroke-linejoin="round" stroke-width="2.5" d="M8.33209839,40.3509661 C8.33209839,40.3509661 13.729921,35.8911435 13.9655016,30.493321 C14.2000016,25.0944177 16.0781629,22.5127565 19.3633242,22.5127565 C23.1196468,22.5127565 23.5886468,26.972579 23.5886468,26.972579 L26.4048081,26.972579 C26.4048081,26.972579 27.5632597,17.9880952 30.8646306,14.2987726 C34.8543726,9.83895 44.2419371,8.66536935 44.2419371,8.66536935"/>
    </g>
  </g>
</svg>
